<svg xmlns="http://www.w3.org/2000/svg" xmlns:xlink="http://www.w3.org/1999/xlink" width="500" zoomAndPan="magnify" viewBox="0 0 375 374.999991" height="500" preserveAspectRatio="xMidYMid meet" version="1.0"><defs><g/><clipPath id="id1"><path d="M 56.113281 170.535156 L 318.613281 170.535156 L 318.613281 204.285156 L 56.113281 204.285156 Z M 56.113281 170.535156 " clip-rule="nonzero"/></clipPath></defs><g fill="#1f2122" fill-opacity="1"><g transform="translate(103.157203, 296.917025)"><g><path d="M 156.1875 -195.375 L 42.875 -6.53125 L 98.546875 -6.53125 C 110.285156 -6.53125 119.226562 -8.1875 125.375 -11.5 C 131.53125 -14.8125 136.023438 -20.160156 138.859375 -27.546875 C 141.703125 -34.929688 143.785156 -45.628906 145.109375 -59.640625 L 151.640625 -59.640625 C 151.078125 -53.765625 150.796875 -46 150.796875 -36.34375 C 150.796875 -25.550781 151.457031 -13.4375 152.78125 0 C 138.769531 -0.570312 115.203125 -0.859375 82.078125 -0.859375 C 49.703125 -0.859375 26.316406 -0.570312 11.921875 0 L 11.921875 -5.6875 L 126.09375 -194.53125 L 70.71875 -194.53125 C 58.976562 -194.53125 50.03125 -192.875 43.875 -189.5625 C 37.71875 -186.25 33.21875 -180.898438 30.375 -173.515625 C 27.539062 -166.128906 25.460938 -155.429688 24.140625 -141.421875 L 17.609375 -141.421875 C 18.171875 -147.484375 18.453125 -155.25 18.453125 -164.71875 C 18.453125 -175.5 17.789062 -187.613281 16.46875 -201.0625 C 30.476562 -200.488281 54.050781 -200.203125 87.1875 -200.203125 C 119.363281 -200.203125 142.363281 -200.488281 156.1875 -201.0625 Z M 156.1875 -195.375 "/></g></g></g><g clip-path="url(#id1)"><path fill="#ffffff" d="M 56.140625 170.535156 L 318.589844 170.535156 L 318.589844 204.285156 L 56.140625 204.285156 L 56.140625 170.535156 " fill-opacity="1" fill-rule="nonzero"/></g><g fill="#1f2122" fill-opacity="1"><g transform="translate(93.375379, 192.113279)"><g><path d="M 0.46875 0 L 0.46875 -0.125 L 5.484375 -9.171875 L 2.796875 -9.171875 C 2.316406 -9.171875 1.9375 -9.113281 1.65625 -9 C 1.382812 -8.882812 1.1875 -8.695312 1.0625 -8.4375 C 0.9375 -8.175781 0.863281 -7.8125 0.84375 -7.34375 L 0.828125 -7.03125 L 0.703125 -7.03125 L 0.78125 -9.296875 L 6.953125 -9.296875 L 6.953125 -9.171875 L 1.9375 -0.125 L 5.0625 -0.125 C 5.53125 -0.125 5.894531 -0.179688 6.15625 -0.296875 C 6.425781 -0.410156 6.625 -0.597656 6.75 -0.859375 C 6.882812 -1.128906 6.976562 -1.492188 7.03125 -1.953125 L 7.046875 -2.28125 L 7.1875 -2.28125 L 7.109375 0 Z M 0.46875 0 "/></g></g></g><g fill="#1f2122" fill-opacity="1"><g transform="translate(105.978957, 192.113279)"><g><path d="M 0.5 0 L 0.5 -0.125 L 0.671875 -0.125 C 1.378906 -0.125 1.734375 -0.4375 1.734375 -1.0625 L 1.734375 -8.28125 C 1.734375 -8.875 1.378906 -9.171875 0.671875 -9.171875 L 0.5 -9.171875 L 0.5 -9.296875 L 7.046875 -9.296875 L 7.125 -7.03125 L 7 -7.03125 L 6.96875 -7.453125 C 6.925781 -8.109375 6.773438 -8.554688 6.515625 -8.796875 C 6.253906 -9.046875 5.796875 -9.171875 5.140625 -9.171875 L 3.046875 -9.171875 L 3.046875 -4.9375 L 6.3125 -4.9375 L 6.3125 -4.8125 L 3.046875 -4.8125 L 3.046875 -0.125 L 5.453125 -0.125 C 5.921875 -0.125 6.289062 -0.175781 6.5625 -0.28125 C 6.84375 -0.382812 7.046875 -0.5625 7.171875 -0.8125 C 7.304688 -1.070312 7.390625 -1.414062 7.421875 -1.84375 L 7.4375 -2.28125 L 7.578125 -2.28125 L 7.484375 0 Z M 0.5 0 "/></g></g></g><g fill="#1f2122" fill-opacity="1"><g transform="translate(118.986499, 192.113279)"><g><path d="M 4.71875 0.125 C 3.6875 0.125 2.878906 -0.0976562 2.296875 -0.546875 C 1.722656 -0.992188 1.4375 -1.75 1.4375 -2.8125 L 1.4375 -8.28125 C 1.4375 -8.875 1.078125 -9.171875 0.359375 -9.171875 L 0.203125 -9.171875 L 0.203125 -9.296875 L 3.984375 -9.296875 L 3.984375 -9.171875 L 3.8125 -9.171875 C 3.101562 -9.171875 2.75 -8.863281 2.75 -8.25 L 2.75 -2.734375 C 2.75 -2.035156 2.84375 -1.488281 3.03125 -1.09375 C 3.21875 -0.707031 3.472656 -0.4375 3.796875 -0.28125 C 4.128906 -0.132812 4.503906 -0.0625 4.921875 -0.0625 C 5.804688 -0.0625 6.503906 -0.289062 7.015625 -0.75 C 7.523438 -1.21875 7.78125 -1.863281 7.78125 -2.6875 L 7.78125 -8.28125 C 7.78125 -8.875 7.425781 -9.171875 6.71875 -9.171875 L 6.546875 -9.171875 L 6.546875 -9.296875 L 9.140625 -9.296875 L 9.140625 -9.171875 L 8.984375 -9.171875 C 8.265625 -9.171875 7.90625 -8.859375 7.90625 -8.234375 L 7.90625 -2.65625 C 7.90625 -1.789062 7.628906 -1.109375 7.078125 -0.609375 C 6.535156 -0.117188 5.75 0.125 4.71875 0.125 Z M 4.71875 0.125 "/></g></g></g><g fill="#1f2122" fill-opacity="1"><g transform="translate(133.218983, 192.113279)"><g><path d="M 3.359375 0.125 C 2.503906 0.125 1.832031 -0.046875 1.34375 -0.390625 C 0.863281 -0.734375 0.625 -1.160156 0.625 -1.671875 C 0.625 -2.273438 0.9375 -2.578125 1.5625 -2.578125 C 1.570312 -1.722656 1.726562 -1.078125 2.03125 -0.640625 C 2.34375 -0.210938 2.816406 0 3.453125 0 C 4.003906 0 4.453125 -0.160156 4.796875 -0.484375 C 5.140625 -0.804688 5.3125 -1.285156 5.3125 -1.921875 C 5.3125 -2.316406 5.238281 -2.632812 5.09375 -2.875 C 4.957031 -3.125 4.726562 -3.34375 4.40625 -3.53125 C 4.09375 -3.726562 3.679688 -3.945312 3.171875 -4.1875 C 2.898438 -4.3125 2.625 -4.445312 2.34375 -4.59375 C 2.0625 -4.75 1.800781 -4.929688 1.5625 -5.140625 C 1.320312 -5.359375 1.128906 -5.617188 0.984375 -5.921875 C 0.835938 -6.234375 0.765625 -6.601562 0.765625 -7.03125 C 0.765625 -7.8125 1.015625 -8.40625 1.515625 -8.8125 C 2.015625 -9.226562 2.679688 -9.4375 3.515625 -9.4375 C 4.023438 -9.4375 4.46875 -9.363281 4.84375 -9.21875 C 5.226562 -9.082031 5.523438 -8.898438 5.734375 -8.671875 C 5.953125 -8.453125 6.0625 -8.207031 6.0625 -7.9375 C 6.0625 -7.6875 5.960938 -7.488281 5.765625 -7.34375 C 5.578125 -7.195312 5.332031 -7.125 5.03125 -7.125 C 5.03125 -7.84375 4.910156 -8.382812 4.671875 -8.75 C 4.441406 -9.113281 4.050781 -9.296875 3.5 -9.296875 C 3 -9.296875 2.597656 -9.144531 2.296875 -8.84375 C 1.992188 -8.539062 1.84375 -8.09375 1.84375 -7.5 C 1.84375 -7.082031 1.921875 -6.738281 2.078125 -6.46875 C 2.234375 -6.207031 2.46875 -5.984375 2.78125 -5.796875 C 3.09375 -5.617188 3.492188 -5.414062 3.984375 -5.1875 C 4.421875 -4.988281 4.820312 -4.78125 5.1875 -4.5625 C 5.5625 -4.34375 5.859375 -4.066406 6.078125 -3.734375 C 6.304688 -3.398438 6.421875 -2.96875 6.421875 -2.4375 C 6.421875 -1.644531 6.15625 -1.019531 5.625 -0.5625 C 5.09375 -0.101562 4.335938 0.125 3.359375 0.125 Z M 3.359375 0.125 "/></g></g></g><g fill="#1f2122" fill-opacity="1"><g transform="translate(145.197061, 192.113279)"><g/></g></g><g fill="#1f2122" fill-opacity="1"><g transform="translate(153.018176, 192.113279)"><g><path d="M 3.796875 0 L 1.21875 -8.484375 C 1.132812 -8.742188 1.023438 -8.921875 0.890625 -9.015625 C 0.765625 -9.117188 0.5625 -9.171875 0.28125 -9.171875 L 0.125 -9.171875 L 0.125 -9.296875 L 3.703125 -9.296875 L 3.703125 -9.171875 L 3.40625 -9.171875 C 3.132812 -9.171875 2.9375 -9.128906 2.8125 -9.046875 C 2.6875 -8.972656 2.625 -8.84375 2.625 -8.65625 C 2.625 -8.507812 2.65625 -8.3125 2.71875 -8.0625 L 4.125 -3.484375 C 4.238281 -3.085938 4.34375 -2.6875 4.4375 -2.28125 C 4.53125 -1.882812 4.617188 -1.472656 4.703125 -1.046875 C 4.753906 -1.296875 4.828125 -1.597656 4.921875 -1.953125 C 5.015625 -2.316406 5.113281 -2.707031 5.21875 -3.125 L 6.765625 -9.21875 L 7.3125 -9.21875 L 9.21875 -3.578125 C 9.394531 -3.035156 9.550781 -2.523438 9.6875 -2.046875 C 9.820312 -1.566406 9.925781 -1.179688 10 -0.890625 C 10.039062 -1.078125 10.078125 -1.226562 10.109375 -1.34375 C 10.148438 -1.46875 10.1875 -1.601562 10.21875 -1.75 C 10.25 -1.90625 10.304688 -2.117188 10.390625 -2.390625 L 11.828125 -7.859375 C 11.910156 -8.140625 11.953125 -8.367188 11.953125 -8.546875 C 11.953125 -8.785156 11.878906 -8.945312 11.734375 -9.03125 C 11.585938 -9.125 11.363281 -9.171875 11.0625 -9.171875 L 10.765625 -9.171875 L 10.765625 -9.296875 L 13.296875 -9.296875 L 13.296875 -9.171875 L 13.046875 -9.171875 C 12.773438 -9.171875 12.566406 -9.097656 12.421875 -8.953125 C 12.273438 -8.804688 12.148438 -8.539062 12.046875 -8.15625 L 9.890625 0 L 9.109375 0 L 6.53125 -7.78125 L 4.59375 0 Z M 3.796875 0 "/></g></g></g><g fill="#1f2122" fill-opacity="1"><g transform="translate(171.550972, 192.113279)"><g><path d="M 0.5 0 L 0.5 -0.125 L 0.671875 -0.125 C 1.378906 -0.125 1.734375 -0.4375 1.734375 -1.0625 L 1.734375 -8.28125 C 1.734375 -8.875 1.378906 -9.171875 0.671875 -9.171875 L 0.5 -9.171875 L 0.5 -9.296875 L 7.046875 -9.296875 L 7.125 -7.03125 L 7 -7.03125 L 6.96875 -7.453125 C 6.925781 -8.109375 6.773438 -8.554688 6.515625 -8.796875 C 6.253906 -9.046875 5.796875 -9.171875 5.140625 -9.171875 L 3.046875 -9.171875 L 3.046875 -4.9375 L 6.3125 -4.9375 L 6.3125 -4.8125 L 3.046875 -4.8125 L 3.046875 -0.125 L 5.453125 -0.125 C 5.921875 -0.125 6.289062 -0.175781 6.5625 -0.28125 C 6.84375 -0.382812 7.046875 -0.5625 7.171875 -0.8125 C 7.304688 -1.070312 7.390625 -1.414062 7.421875 -1.84375 L 7.4375 -2.28125 L 7.578125 -2.28125 L 7.484375 0 Z M 0.5 0 "/></g></g></g><g fill="#1f2122" fill-opacity="1"><g transform="translate(184.558514, 192.113279)"><g><path d="M 0.5 0 L 0.5 -0.125 L 0.671875 -0.125 C 1.378906 -0.125 1.734375 -0.4375 1.734375 -1.0625 L 1.734375 -8.28125 C 1.734375 -8.875 1.378906 -9.171875 0.671875 -9.171875 L 0.5 -9.171875 L 0.5 -9.296875 L 3.984375 -9.296875 C 6.222656 -9.296875 7.34375 -8.5625 7.34375 -7.09375 C 7.34375 -5.78125 6.503906 -5.054688 4.828125 -4.921875 L 4.828125 -4.90625 C 5.867188 -4.851562 6.613281 -4.613281 7.0625 -4.1875 C 7.507812 -3.757812 7.734375 -3.195312 7.734375 -2.5 C 7.734375 -0.832031 6.613281 0 4.375 0 Z M 3.046875 -4.9375 L 3.953125 -4.9375 C 4.671875 -4.9375 5.179688 -5.09375 5.484375 -5.40625 C 5.785156 -5.71875 5.9375 -6.238281 5.9375 -6.96875 C 5.9375 -7.757812 5.78125 -8.320312 5.46875 -8.65625 C 5.164062 -9 4.648438 -9.171875 3.921875 -9.171875 L 3.046875 -9.171875 Z M 3.046875 -0.125 L 4.3125 -0.125 C 5.039062 -0.125 5.554688 -0.304688 5.859375 -0.671875 C 6.171875 -1.035156 6.328125 -1.644531 6.328125 -2.5 C 6.328125 -3.320312 6.175781 -3.910156 5.875 -4.265625 C 5.570312 -4.628906 5.0625 -4.8125 4.34375 -4.8125 L 3.046875 -4.8125 Z M 3.046875 -0.125 "/></g></g></g><g fill="#1f2122" fill-opacity="1"><g transform="translate(197.970033, 192.113279)"><g/></g></g><g fill="#1f2122" fill-opacity="1"><g transform="translate(205.791143, 192.113279)"><g><path d="M 0.5 0 L 0.5 -0.125 L 0.671875 -0.125 C 1.378906 -0.125 1.734375 -0.4375 1.734375 -1.0625 L 1.734375 -8.28125 C 1.734375 -8.875 1.378906 -9.171875 0.671875 -9.171875 L 0.5 -9.171875 L 0.5 -9.296875 L 4.15625 -9.296875 C 5.25 -9.296875 6.054688 -9.050781 6.578125 -8.5625 C 7.097656 -8.082031 7.359375 -7.421875 7.359375 -6.578125 C 7.359375 -6.066406 7.25 -5.582031 7.03125 -5.125 C 6.8125 -4.675781 6.441406 -4.3125 5.921875 -4.03125 C 5.410156 -3.757812 4.726562 -3.625 3.875 -3.625 L 3.046875 -3.625 L 3.046875 -1.0625 C 3.046875 -0.4375 3.40625 -0.125 4.125 -0.125 L 4.28125 -0.125 L 4.28125 0 Z M 3.046875 -3.75 L 3.734375 -3.75 C 4.523438 -3.75 5.09375 -3.960938 5.4375 -4.390625 C 5.78125 -4.816406 5.953125 -5.53125 5.953125 -6.53125 C 5.953125 -7.476562 5.796875 -8.15625 5.484375 -8.5625 C 5.179688 -8.96875 4.664062 -9.171875 3.9375 -9.171875 L 3.046875 -9.171875 Z M 3.046875 -3.75 "/></g></g></g><g fill="#1f2122" fill-opacity="1"><g transform="translate(218.551098, 192.113279)"><g><path d="M 4.828125 0.125 C 3.910156 0.125 3.144531 -0.0703125 2.53125 -0.46875 C 1.925781 -0.863281 1.472656 -1.421875 1.171875 -2.140625 C 0.878906 -2.867188 0.734375 -3.710938 0.734375 -4.671875 C 0.734375 -5.640625 0.878906 -6.476562 1.171875 -7.1875 C 1.472656 -7.90625 1.929688 -8.460938 2.546875 -8.859375 C 3.160156 -9.253906 3.925781 -9.453125 4.84375 -9.453125 C 5.71875 -9.453125 6.457031 -9.253906 7.0625 -8.859375 C 7.664062 -8.460938 8.125 -7.90625 8.4375 -7.1875 C 8.757812 -6.46875 8.921875 -5.628906 8.921875 -4.671875 C 8.921875 -3.703125 8.757812 -2.859375 8.4375 -2.140625 C 8.125 -1.421875 7.664062 -0.863281 7.0625 -0.46875 C 6.457031 -0.0703125 5.710938 0.125 4.828125 0.125 Z M 4.828125 0 C 5.765625 0 6.441406 -0.367188 6.859375 -1.109375 C 7.273438 -1.847656 7.484375 -3.035156 7.484375 -4.671875 C 7.484375 -6.296875 7.273438 -7.472656 6.859375 -8.203125 C 6.441406 -8.941406 5.769531 -9.3125 4.84375 -9.3125 C 3.914062 -9.3125 3.238281 -8.941406 2.8125 -8.203125 C 2.382812 -7.472656 2.171875 -6.296875 2.171875 -4.671875 C 2.171875 -3.035156 2.378906 -1.847656 2.796875 -1.109375 C 3.222656 -0.367188 3.898438 0 4.828125 0 Z M 4.828125 0 "/></g></g></g><g fill="#1f2122" fill-opacity="1"><g transform="translate(233.109355, 192.113279)"><g><path d="M 0.5 0 L 0.5 -0.125 L 0.671875 -0.125 C 1.378906 -0.125 1.734375 -0.4375 1.734375 -1.0625 L 1.734375 -8.28125 C 1.734375 -8.875 1.378906 -9.171875 0.671875 -9.171875 L 0.5 -9.171875 L 0.5 -9.296875 L 4 -9.296875 C 5.125 -9.296875 5.960938 -9.085938 6.515625 -8.671875 C 7.066406 -8.253906 7.34375 -7.65625 7.34375 -6.875 C 7.34375 -6.351562 7.238281 -5.929688 7.03125 -5.609375 C 6.832031 -5.296875 6.570312 -5.046875 6.25 -4.859375 C 5.9375 -4.679688 5.613281 -4.539062 5.28125 -4.4375 L 7.109375 -1.578125 C 7.472656 -1.023438 7.757812 -0.644531 7.96875 -0.4375 C 8.175781 -0.226562 8.382812 -0.125 8.59375 -0.125 L 8.625 -0.125 L 8.625 0 L 8.4375 0 C 8.03125 0 7.691406 -0.015625 7.421875 -0.046875 C 7.160156 -0.078125 6.941406 -0.128906 6.765625 -0.203125 C 6.597656 -0.285156 6.445312 -0.398438 6.3125 -0.546875 C 6.175781 -0.703125 6.03125 -0.898438 5.875 -1.140625 L 3.875 -4.34375 L 3.046875 -4.34375 L 3.046875 -1.0625 C 3.046875 -0.4375 3.40625 -0.125 4.125 -0.125 L 4.28125 -0.125 L 4.28125 0 Z M 3.046875 -4.46875 L 3.96875 -4.46875 C 4.6875 -4.46875 5.195312 -4.644531 5.5 -5 C 5.800781 -5.351562 5.953125 -5.945312 5.953125 -6.78125 C 5.953125 -7.632812 5.796875 -8.242188 5.484375 -8.609375 C 5.171875 -8.984375 4.65625 -9.171875 3.9375 -9.171875 L 3.046875 -9.171875 Z M 3.046875 -4.46875 "/></g></g></g><g fill="#1f2122" fill-opacity="1"><g transform="translate(246.546939, 192.113279)"><g><path d="M 2.078125 0 L 2.078125 -0.125 L 2.25 -0.125 C 2.96875 -0.125 3.328125 -0.4375 3.328125 -1.0625 L 3.328125 -9.171875 L 2.25 -9.171875 C 1.59375 -9.171875 1.128906 -9.046875 0.859375 -8.796875 C 0.597656 -8.554688 0.453125 -8.109375 0.421875 -7.453125 L 0.390625 -7.03125 L 0.265625 -7.03125 L 0.34375 -9.296875 L 7.65625 -9.296875 L 7.734375 -7.03125 L 7.59375 -7.03125 L 7.578125 -7.453125 C 7.523438 -8.109375 7.367188 -8.554688 7.109375 -8.796875 C 6.847656 -9.046875 6.390625 -9.171875 5.734375 -9.171875 L 4.640625 -9.171875 L 4.640625 -1.0625 C 4.640625 -0.4375 4.992188 -0.125 5.703125 -0.125 L 5.875 -0.125 L 5.875 0 Z M 2.078125 0 "/></g></g></g><g fill="#1f2122" fill-opacity="1"><g transform="translate(259.424173, 192.113279)"><g><path d="M 0 0 L 0 -0.125 L 0.375 -0.125 C 0.65625 -0.125 0.875 -0.195312 1.03125 -0.34375 C 1.195312 -0.5 1.34375 -0.765625 1.46875 -1.140625 L 4.3125 -9.296875 L 4.984375 -9.296875 L 8.25 -0.828125 C 8.34375 -0.566406 8.445312 -0.382812 8.5625 -0.28125 C 8.675781 -0.175781 8.828125 -0.125 9.015625 -0.125 L 9.1875 -0.125 L 9.1875 0 L 5.609375 0 L 5.609375 -0.125 L 5.90625 -0.125 C 6.226562 -0.125 6.460938 -0.160156 6.609375 -0.234375 C 6.765625 -0.316406 6.84375 -0.460938 6.84375 -0.671875 C 6.84375 -0.734375 6.832031 -0.8125 6.8125 -0.90625 C 6.800781 -1.007812 6.769531 -1.117188 6.71875 -1.234375 L 5.921875 -3.375 L 2.390625 -3.375 L 1.6875 -1.328125 C 1.601562 -1.097656 1.5625 -0.910156 1.5625 -0.765625 C 1.5625 -0.535156 1.664062 -0.367188 1.875 -0.265625 C 2.082031 -0.171875 2.414062 -0.125 2.875 -0.125 L 3.171875 -0.125 L 3.171875 0 Z M 2.4375 -3.5 L 5.875 -3.5 L 4.921875 -6.046875 C 4.585938 -6.921875 4.320312 -7.703125 4.125 -8.390625 C 4.03125 -8.128906 3.953125 -7.898438 3.890625 -7.703125 C 3.828125 -7.503906 3.757812 -7.289062 3.6875 -7.0625 C 3.613281 -6.84375 3.519531 -6.578125 3.40625 -6.265625 Z M 2.4375 -3.5 "/></g></g></g><g fill="#1f2122" fill-opacity="1"><g transform="translate(273.500291, 192.113279)"><g><path d="M 0.5 0 L 0.5 -0.125 L 0.671875 -0.125 C 1.378906 -0.125 1.734375 -0.4375 1.734375 -1.0625 L 1.734375 -8.28125 C 1.734375 -8.875 1.378906 -9.171875 0.671875 -9.171875 L 0.5 -9.171875 L 0.5 -9.296875 L 4.28125 -9.296875 L 4.28125 -9.171875 L 4.125 -9.171875 C 3.40625 -9.171875 3.046875 -8.859375 3.046875 -8.234375 L 3.046875 -0.125 L 5.453125 -0.125 C 5.921875 -0.125 6.289062 -0.191406 6.5625 -0.328125 C 6.832031 -0.460938 7.03125 -0.695312 7.15625 -1.03125 C 7.289062 -1.363281 7.378906 -1.8125 7.421875 -2.375 L 7.4375 -2.796875 L 7.578125 -2.796875 L 7.484375 0 Z M 0.5 0 "/></g></g></g></svg>