<svg xmlns="http://www.w3.org/2000/svg" xmlns:xlink="http://www.w3.org/1999/xlink" width="500" zoomAndPan="magnify" viewBox="0 0 375 374.999991" height="500" preserveAspectRatio="xMidYMid meet" version="1.0"><defs><g/><clipPath id="id1"><path d="M 184.472656 196.503906 L 208.699219 196.503906 L 208.699219 223.15625 L 184.472656 223.15625 Z M 184.472656 196.503906 " clip-rule="nonzero"/></clipPath><clipPath id="id2"><path d="M 178 75.40625 L 198 75.40625 L 198 100 L 178 100 Z M 178 75.40625 " clip-rule="nonzero"/></clipPath><clipPath id="id3"><path d="M 201 75.40625 L 221 75.40625 L 221 88 L 201 88 Z M 201 75.40625 " clip-rule="nonzero"/></clipPath><clipPath id="id4"><path d="M 196 122 L 233.144531 122 L 233.144531 186 L 196 186 Z M 196 122 " clip-rule="nonzero"/></clipPath></defs><path fill="#ffffff" d="M 220.527344 156.378906 C 215.316406 155.453125 211.722656 159.9375 211.382812 165.261719 C 211.191406 168.238281 211.070312 168.222656 209.65625 170.089844 C 207.847656 172.476562 207.132812 175.574219 208.945312 177.5625 C 209.738281 178.433594 210.335938 178.855469 210.484375 177.300781 C 210.746094 174.589844 209.242188 173.195312 211.445312 171.214844 C 212.792969 170 216.277344 169.015625 217.125 167.75 C 218.324219 165.953125 217.886719 163.300781 219.828125 161.28125 C 222.164062 158.851562 226.023438 161.085938 227.441406 161.484375 C 228.070312 157.980469 223.421875 156.890625 220.527344 156.378906 " fill-opacity="1" fill-rule="evenodd"/><path fill="#ffffff" d="M 222.011719 162.738281 C 221.246094 162.558594 220.59375 162.640625 220.160156 163.597656 C 219.8125 164.375 219.519531 165.253906 219.28125 166.226562 C 219.070312 167.085938 219.097656 167.675781 220.195312 167.710938 C 221.757812 167.757812 222.554688 167.933594 223.761719 168.117188 C 224.558594 168.238281 225.132812 168.253906 225.597656 167.527344 C 226.199219 166.585938 227 165.214844 226.339844 164.550781 C 225.550781 163.75 223.1875 163.015625 222.011719 162.738281 " fill-opacity="1" fill-rule="evenodd"/><path fill="#ffffff" d="M 224.953125 170.730469 C 223.628906 168.875 219.203125 169.445312 218.097656 170.808594 C 214.914062 174.753906 218.546875 177.867188 220.851562 182.441406 C 221.6875 184.105469 222.183594 185.847656 222.496094 187.660156 C 222.667969 188.660156 223.035156 188.089844 223.199219 187.546875 C 225.382812 180.304688 218.484375 177 219.15625 173.277344 C 219.324219 172.34375 220.488281 172.542969 220.503906 173.234375 C 220.519531 173.75 220.566406 174.683594 222.085938 176.8125 C 223.320312 178.542969 223.386719 178.730469 224.246094 180.683594 C 224.398438 181.039062 224.769531 181.097656 225.101562 180.960938 C 228.269531 179.671875 227.585938 175.773438 226.070312 172.78125 C 225.667969 171.984375 225.351562 171.292969 224.953125 170.730469 " fill-opacity="1" fill-rule="evenodd"/><path fill="#ffffff" d="M 218.488281 196.417969 C 220.574219 191.683594 221.480469 186.828125 218.710938 182.035156 C 218.039062 180.867188 217.203125 179.4375 216.214844 177.574219 C 214.699219 174.734375 215.019531 173.078125 215.75 171.578125 C 216.164062 170.722656 215.84375 170.488281 215.015625 170.738281 C 212.972656 171.34375 211.894531 171.878906 211.859375 174.035156 C 211.839844 175.296875 212.136719 177.0625 211.957031 178.339844 C 211.6875 180.289062 209.71875 180.710938 208.496094 179.613281 C 208.082031 179.238281 207.699219 178.792969 207.398438 178.371094 C 206.925781 177.707031 206.667969 177.683594 206.171875 178.332031 L 205.609375 179.074219 C 205.070312 179.78125 205.179688 180.996094 205.554688 181.757812 C 206.308594 183.292969 206.753906 184.210938 207.386719 186.761719 C 207.984375 189.1875 207.871094 191.066406 208.160156 193.054688 C 208.628906 196.261719 210.167969 199.054688 210.238281 202.519531 C 210.289062 204.996094 209.375 207.371094 208.394531 209.609375 C 208.144531 210.179688 208.699219 209.804688 208.867188 209.691406 C 211.960938 207.625 214.96875 203.316406 216.03125 199.957031 C 217.640625 194.859375 212.867188 191.582031 212.171875 188.769531 C 211.773438 187.152344 213.445312 186.507812 214.0625 188.289062 C 214.316406 189.027344 214.679688 190.085938 215.6875 191.730469 C 216.5 193.054688 217.390625 194.53125 217.78125 196.445312 C 217.960938 197.3125 218.21875 197.023438 218.488281 196.417969 " fill-opacity="1" fill-rule="evenodd"/><path fill="#ffffff" d="M 225.527344 189.695312 C 219.855469 191.082031 222.035156 193.945312 218.460938 200.117188 C 217.382812 201.984375 216.359375 204.148438 215.101562 205.792969 C 213.855469 207.421875 212.371094 208.53125 210.769531 209.941406 C 206.6875 213.542969 208.21875 216.769531 209.875 217.890625 C 210.230469 218.132812 210.296875 217.964844 210.445312 217.628906 C 213.929688 209.59375 214.84375 213.527344 220.40625 210.410156 C 222.285156 209.355469 222.039062 208.660156 221.972656 206.003906 C 221.859375 201.535156 224.3125 200.003906 226.183594 197.886719 C 228.804688 194.925781 229.28125 194.222656 228.328125 190.582031 C 228.023438 189.417969 226.46875 189.464844 225.527344 189.695312 " fill-opacity="1" fill-rule="evenodd"/><path fill="#ffffff" d="M 224.886719 187.71875 C 224.789062 188.378906 224.984375 188.445312 225.613281 188.242188 C 230.292969 186.722656 229.839844 183.539062 228.628906 181.6875 C 228.214844 181.050781 227.503906 180.964844 226.921875 181.453125 C 226.589844 181.730469 226.28125 181.957031 225.949219 182.25 C 225.382812 182.753906 224.960938 183.582031 225.039062 184.34375 C 225.148438 185.355469 225.042969 186.667969 224.886719 187.71875 " fill-opacity="1" fill-rule="evenodd"/><g clip-path="url(#id1)"><path fill="#ffffff" d="M 207.828125 205.835938 C 208.800781 203.328125 208.832031 200.613281 207.457031 197.484375 C 206.941406 196.308594 206.628906 196.722656 206.074219 197.632812 C 203.375 202.0625 199.628906 204.804688 190.925781 207.398438 C 184.476562 209.324219 183.710938 216.160156 186.160156 220.332031 C 186.921875 221.632812 187.457031 222.105469 188.230469 222.640625 C 189.035156 223.199219 189.453125 223.5625 189.503906 222.382812 C 189.648438 218.820312 190.984375 216.839844 193.429688 215.277344 C 199.144531 211.628906 204.707031 213.863281 207.828125 205.835938 " fill-opacity="1" fill-rule="evenodd"/></g><path fill="#ffffff" d="M 200.351562 201.367188 C 202.054688 200.132812 203.578125 198.566406 205.21875 195.886719 C 207.558594 192.054688 206.273438 186.257812 204.355469 182.652344 C 203.550781 181.140625 201.863281 181.863281 200.980469 182.902344 C 199.703125 184.402344 199.050781 185.484375 198.765625 186.351562 C 198.3125 187.746094 197.179688 188.328125 196.28125 186.992188 C 195.628906 186.023438 195.203125 184.820312 194.902344 183.738281 C 194.382812 181.859375 193.640625 182.421875 193.136719 183.910156 C 192.882812 184.664062 192.65625 185.488281 192.355469 186.363281 C 191.535156 188.714844 192.3125 190.394531 191.78125 192.851562 C 190.835938 197.242188 187.46875 197.429688 184.359375 199.414062 C 178.75 203 182.285156 207.769531 173.617188 209.3125 C 172.632812 209.488281 171.699219 209.644531 170.660156 209.800781 C 169.535156 210.058594 167.363281 210.570312 169.828125 211.542969 C 171.308594 212.125 172.800781 212.707031 175.015625 212.8125 C 185.167969 213.296875 184.429688 208.738281 188.082031 206.847656 C 192.191406 204.722656 194.90625 205.3125 200.351562 201.367188 " fill-opacity="1" fill-rule="evenodd"/><path fill="#ffffff" d="M 198.179688 172.710938 C 205.347656 167.101562 201.625 164.210938 201.054688 160.160156 C 200.835938 158.601562 201.203125 157.359375 201.617188 156.171875 C 202.011719 155.035156 202.015625 154.050781 201.148438 153.179688 C 200.089844 152.121094 198.894531 151.210938 197.820312 149.863281 C 197.71875 149.730469 197.613281 149.59375 197.515625 149.457031 C 197.113281 148.90625 196.789062 148.722656 196.5 148.753906 C 196.035156 148.800781 195.65625 149.402344 195.183594 149.933594 C 194.535156 150.667969 193.746094 151.125 192.214844 152.148438 C 190.964844 152.980469 189.585938 153.839844 188.984375 154.792969 C 186.25 159.140625 189.25 163.308594 189.496094 166.988281 C 189.589844 169.179688 188.820312 170.84375 187.949219 172.492188 C 187.402344 173.519531 186.816406 174.539062 186.507812 175.75 C 185.644531 179.144531 188.164062 181.640625 188.003906 185.230469 C 187.945312 186.417969 187.699219 187.828125 187.359375 189.511719 C 187.121094 190.675781 187.6875 190.785156 188.558594 189.949219 C 190.375 188.210938 191.027344 185.121094 192.082031 182.394531 C 192.59375 181.074219 193.25 180.164062 193.765625 178.945312 C 194.984375 176.058594 195.648438 174.691406 198.179688 172.710938 " fill-opacity="1" fill-rule="evenodd"/><path fill="#ffffff" d="M 194.296875 144.492188 C 195.957031 142.964844 195.613281 140.761719 195.867188 137.390625 C 196.492188 128.992188 204.59375 130.378906 197.039062 116.867188 C 196.4375 115.792969 195.9375 115 195.554688 114.183594 C 194.867188 112.722656 194.722656 112.535156 192.984375 112.800781 C 191.667969 113 190.292969 113.0625 190.300781 114.429688 L 190.308594 116.851562 C 190.316406 118.175781 190.558594 118.183594 191.457031 118.917969 C 193.050781 120.210938 192.058594 122.046875 190.535156 123.011719 C 189.378906 123.75 189.085938 123.75 188.941406 125.34375 C 188.75 127.449219 188.246094 129.0625 187.828125 130.425781 C 186.8125 133.75 187.578125 135.503906 189.621094 138.125 C 190.820312 139.660156 192.480469 141.632812 192.925781 143.648438 C 193.113281 144.480469 193.0625 145.628906 194.296875 144.492188 " fill-opacity="1" fill-rule="evenodd"/><path fill="#ffffff" d="M 190.785156 145.746094 C 191.347656 143.375 190.171875 140.644531 188.511719 138.964844 C 188.113281 138.558594 187.558594 138.464844 187.539062 139.179688 C 187.4375 143.070312 187.371094 145.832031 185.535156 148.949219 C 184.304688 151.046875 181.296875 153.355469 180.148438 155.636719 C 179.984375 155.964844 180.089844 156.152344 180.445312 156.003906 C 183.980469 154.5 184.480469 155.332031 188.898438 152.230469 C 190.039062 151.425781 190.96875 150.941406 191.710938 150.503906 C 192.445312 150.070312 195.453125 147.421875 193.113281 147.695312 C 189.945312 148.066406 190.40625 147.351562 190.785156 145.746094 " fill-opacity="1" fill-rule="evenodd"/><path fill="#ffffff" d="M 182.96875 149.789062 C 187.125 145.589844 185.921875 139.550781 185.59375 135.3125 C 185.367188 132.316406 186.84375 129.476562 187.152344 127.003906 C 187.378906 125.164062 186.207031 124.964844 184.683594 125.179688 C 181.992188 125.558594 179.34375 126.148438 176.78125 127.035156 C 175.390625 127.515625 175.34375 128.261719 175.75 129.625 C 176.570312 132.375 176.679688 135.175781 175.480469 137.492188 C 174.191406 139.984375 172.058594 141.191406 171.625 144.183594 C 171.507812 144.984375 171.878906 145.210938 172.203125 144.816406 C 174.152344 142.4375 176.597656 140.609375 178.460938 138.183594 C 180.628906 135.355469 180.121094 134.105469 180.339844 133.117188 C 180.535156 132.234375 181.503906 132 181.898438 132.726562 C 182.757812 134.292969 181.832031 137.648438 179.785156 139.796875 C 173.339844 146.570312 170.953125 146.234375 172.683594 154.402344 C 173.15625 156.640625 174.203125 159.089844 175.550781 160.511719 C 176.476562 161.492188 176.886719 161.789062 177.226562 160.277344 C 177.65625 158.390625 176.96875 155.851562 182.96875 149.789062 " fill-opacity="1" fill-rule="evenodd"/><path fill="#ffffff" d="M 172.496094 138.972656 C 174.042969 136.601562 174.863281 135.484375 174.191406 131.507812 C 174.070312 130.777344 173.898438 130.085938 173.660156 129.550781 C 173.101562 128.28125 172.675781 128.441406 171.59375 128.71875 L 170.257812 129.1875 C 169.628906 129.410156 169.316406 129.78125 169.40625 130.464844 C 170.136719 136.035156 171.910156 139.589844 165.601562 144.933594 C 164.027344 146.265625 154.625 149.621094 156.289062 156.238281 C 156.886719 158.621094 159.058594 161.742188 161.316406 163.039062 C 162.121094 163.5 162.75 163.261719 162.769531 162.308594 C 162.855469 158.042969 162.367188 156.769531 161.871094 155.757812 C 160.960938 153.890625 162.609375 153.648438 163.28125 154.898438 C 163.613281 155.515625 163.785156 156.273438 163.941406 157.019531 C 164.917969 161.714844 164.085938 163.996094 163.128906 168.527344 C 162.109375 173.355469 164.046875 179.324219 167.507812 180.828125 C 168.277344 181.164062 168.5 180.695312 168.300781 180 C 167.503906 177.179688 165.871094 174.96875 169.789062 168.160156 C 173.140625 162.335938 171.234375 158.957031 170.328125 153.5 C 169.804688 150.363281 169.371094 144.917969 170.519531 142.226562 C 170.988281 141.125 171.6875 140.207031 172.496094 138.972656 " fill-opacity="1" fill-rule="evenodd"/><path fill="#ffffff" d="M 162.820312 144.734375 C 169.046875 142.085938 168.949219 137.128906 168.210938 132.28125 C 168.128906 131.742188 167.902344 131.082031 167.433594 130.847656 C 166.917969 130.589844 166.140625 130.792969 165.574219 131.003906 C 162.710938 132.058594 158.097656 133.988281 155.441406 135.253906 C 154.132812 135.882812 154.523438 136.984375 155.179688 138.082031 C 156.808594 140.800781 157.058594 144.089844 157.175781 146.875 C 157.214844 147.855469 157.613281 147.792969 158.257812 147.148438 C 159.074219 146.335938 159.996094 145.09375 160.75 143.730469 C 161.71875 141.972656 162.050781 140.644531 162.285156 139.367188 C 162.507812 138.183594 163.625 138.722656 163.714844 139.464844 C 163.910156 141.050781 162.867188 142.972656 162.199219 144.300781 C 161.84375 145.011719 162.179688 145.007812 162.820312 144.734375 " fill-opacity="1" fill-rule="evenodd"/><path fill="#ffffff" d="M 154.992188 133.699219 C 158.675781 132.347656 164.78125 129.488281 166.6875 128.820312 C 168.566406 128.160156 170.5625 127.535156 172.347656 126.875 C 172.910156 126.667969 174.5 125.507812 172.875 125.261719 C 169.3125 124.722656 163.945312 123.71875 160.644531 121.675781 C 159.449219 120.9375 159.175781 120.226562 160.410156 119.308594 C 163.476562 117.023438 167.152344 115.632812 170.691406 114.914062 C 176.75 113.675781 181.820312 114.261719 187.289062 116.582031 C 188.09375 116.925781 188.726562 117.074219 188.6875 116.019531 C 188.671875 115.503906 188.648438 114.964844 188.605469 114.296875 C 188.539062 113.214844 187.707031 113.089844 186.757812 113 C 181.332031 112.480469 177.386719 111.933594 174.050781 110.402344 C 171.761719 109.355469 172.160156 107.699219 173.761719 106.726562 C 177.011719 104.757812 184.019531 103.007812 187.847656 102.617188 C 193.324219 102.054688 201.566406 102.199219 206.207031 105.050781 C 207.515625 105.859375 207.171875 106.8125 206.355469 107.410156 C 205.5625 107.996094 204.722656 108.488281 203.636719 108.976562 C 202.453125 109.507812 202.578125 110.839844 203.191406 111.769531 C 204.402344 113.605469 206.347656 115.148438 207.714844 118.222656 C 212.132812 113.183594 205.605469 109.253906 211.371094 103.5625 C 212.816406 102.136719 214.976562 99.941406 218.210938 100.84375 C 220.816406 101.574219 221.488281 102.601562 222.457031 104.304688 C 222.914062 105.105469 223.535156 105.328125 224.425781 105.125 C 225.574219 104.863281 226.117188 104.773438 227.570312 104.867188 C 228.382812 104.921875 228.695312 104.503906 228.703125 103.746094 C 228.730469 101.265625 227.851562 99.601562 225.773438 98.246094 C 224.132812 97.175781 223.15625 97.1875 221.324219 97.730469 C 217.152344 98.96875 208.253906 101.625 201.300781 99.804688 C 191.613281 97.273438 190.769531 95.492188 196.074219 93.164062 C 201.167969 90.929688 207.132812 89.636719 212.683594 89.855469 C 216.214844 89.992188 217.644531 89.507812 220.3125 87.28125 C 221.738281 86.09375 223.128906 85.335938 225.679688 84 C 226.710938 83.460938 226.847656 82.761719 226.265625 81.761719 C 225.507812 80.46875 224.09375 79.398438 222.65625 78.789062 C 221.597656 78.339844 220.816406 78.574219 220.027344 79.359375 C 218.820312 80.5625 217.476562 81.851562 216.050781 83.03125 C 212.460938 85.996094 206.675781 88.597656 202.128906 88.859375 C 200.695312 88.941406 199.9375 88.386719 200.449219 86.898438 C 200.925781 85.511719 202.09375 84.34375 202.859375 83.480469 C 203.117188 83.1875 204.097656 82.3125 205.050781 81.464844 C 205.539062 81.03125 206.675781 79.789062 205.035156 80.179688 L 200.734375 81.203125 C 199.515625 81.492188 198.777344 82.144531 198.425781 83.324219 C 196.066406 91.3125 188.957031 98.230469 178.628906 100.730469 C 177.183594 101.078125 176.71875 100.929688 176.96875 99.21875 C 177.664062 94.46875 178.929688 90.917969 180.523438 87.933594 C 181.144531 86.769531 179.992188 86.613281 179.148438 86.835938 C 178.28125 87.066406 177.390625 87.378906 176.613281 87.710938 C 175.371094 88.242188 174.847656 89.246094 174.855469 90.574219 C 174.90625 99.144531 171.5625 107.511719 164.179688 112.15625 C 162.957031 112.925781 161.792969 112.980469 161.585938 111.34375 C 160.761719 104.808594 162.425781 100.355469 162.867188 96.988281 C 163.042969 95.664062 162.460938 95.253906 161.074219 95.613281 L 156.472656 97.179688 C 155.285156 97.585938 155.125 98.1875 155.441406 99.273438 C 157.230469 105.414062 157.632812 117.273438 154.828125 122.398438 C 154.230469 123.484375 153.707031 123.640625 152.683594 122.902344 C 151.773438 122.253906 151.261719 122.4375 150.710938 123.394531 C 149.828125 124.921875 148.820312 127.085938 148.925781 128.90625 C 149.019531 130.601562 150.082031 132.28125 151.117188 133.375 C 152.164062 134.480469 153.726562 134.160156 154.992188 133.699219 " fill-opacity="1" fill-rule="evenodd"/><path fill="#ffffff" d="M 153.191406 137.914062 C 151.351562 135.871094 149.542969 134.363281 148.480469 132.261719 C 148.117188 131.550781 147.289062 131.238281 146.355469 131.675781 C 145.15625 132.230469 143.863281 132.835938 143.003906 134.019531 C 141.675781 135.84375 142.15625 138.199219 144.636719 138.496094 C 145.941406 138.648438 147.496094 138.5 148.640625 138.457031 C 149.460938 138.421875 150.132812 138.96875 149.382812 139.601562 C 148.382812 140.453125 146.445312 139.777344 145.464844 141.8125 C 144.542969 143.710938 145.027344 144.710938 145.621094 145.671875 C 146.113281 146.472656 146.25 146.710938 147.070312 146.203125 C 148.28125 145.457031 149.359375 144.710938 150.035156 144.414062 C 151.394531 143.8125 151.917969 144.863281 151.101562 145.546875 C 150.269531 146.246094 148.699219 146.660156 145.984375 148.695312 C 144.941406 149.476562 143.007812 151.191406 142.5 153.007812 C 142.085938 154.484375 142.601562 154.828125 144.003906 154.199219 C 145.417969 153.566406 147.539062 152.542969 149.425781 151.832031 C 153.449219 150.320312 155.957031 148.925781 155.378906 144.167969 C 155.085938 141.761719 154.449219 139.308594 153.191406 137.914062 " fill-opacity="1" fill-rule="evenodd"/><path fill="#ffffff" d="M 163.570312 110.550781 C 174.578125 103.285156 173.765625 90.105469 172.28125 83.699219 C 172.152344 83.136719 171.902344 83.339844 171.535156 83.644531 C 165.527344 88.679688 162.660156 104.363281 162.851562 110.273438 C 162.867188 110.71875 163.195312 110.800781 163.570312 110.550781 " fill-opacity="1" fill-rule="evenodd"/><g clip-path="url(#id2)"><path fill="#ffffff" d="M 197.296875 75.929688 C 187.171875 78.585938 179.566406 88.683594 178.644531 99.066406 C 189.652344 96.039062 197.523438 88.34375 197.296875 75.929688 " fill-opacity="1" fill-rule="evenodd"/></g><path fill="#ffffff" d="M 189.703125 103.898438 C 187.441406 104.011719 179.300781 105.394531 176.269531 107.335938 C 175.234375 108 175.109375 108.761719 176.332031 109.28125 C 179.605469 110.667969 187.480469 111.035156 189.613281 110.996094 C 195.203125 110.886719 201.035156 109.5 203.8125 106.5 C 201.75 104.351562 193.78125 103.691406 189.703125 103.898438 " fill-opacity="1" fill-rule="evenodd"/><path fill="#ffffff" d="M 188.828125 119.128906 C 181.558594 114.570312 167.902344 114.613281 162.003906 120.457031 C 167.992188 124.554688 181.800781 125.726562 188.757812 121.515625 C 190.382812 120.53125 190.359375 120.089844 188.828125 119.128906 " fill-opacity="1" fill-rule="evenodd"/><path fill="#ffffff" d="M 153.769531 121.160156 C 156.164062 115.132812 156.738281 101.683594 151.332031 95.667969 C 148.492188 100.378906 149.894531 118.195312 153.769531 121.160156 " fill-opacity="1" fill-rule="evenodd"/><path fill="#ffffff" d="M 196.714844 113.195312 C 198.804688 118.921875 203.246094 120.578125 201.042969 129.296875 C 203.613281 128.628906 210.988281 122.757812 203.757812 115.035156 C 202.71875 113.925781 202.070312 112.972656 201.324219 111.496094 C 200.957031 110.765625 199.980469 110.566406 199.238281 110.800781 L 197.484375 111.355469 C 196.511719 111.660156 196.371094 112.25 196.714844 113.195312 " fill-opacity="1" fill-rule="evenodd"/><path fill="#ffffff" d="M 217.605469 114.628906 C 217.589844 115.929688 217.742188 117.445312 217.390625 118.765625 C 217.183594 119.546875 217.191406 120.3125 218.054688 120.464844 C 220.253906 120.847656 221.921875 121.183594 223.851562 121.9375 C 224.894531 122.34375 225.804688 122.800781 226.839844 123.238281 C 227.460938 123.5 227.996094 123.527344 227.789062 122.652344 C 227.578125 121.753906 227.226562 120.71875 226.785156 119.816406 C 226.308594 118.84375 225.363281 118.113281 224.382812 117.511719 C 221.832031 115.945312 221.546875 115.667969 219.371094 113.574219 C 218.515625 112.75 217.625 113.070312 217.605469 114.628906 " fill-opacity="1" fill-rule="evenodd"/><path fill="#ffffff" d="M 223.996094 108.230469 L 225.4375 113.738281 C 225.589844 114.328125 226.386719 114.785156 227.117188 113.78125 C 227.78125 112.867188 228.675781 112.179688 230.121094 111.992188 C 231.316406 111.84375 231.410156 111.230469 231.085938 110.246094 C 229.703125 106.082031 226.832031 106.441406 224.769531 106.90625 C 224.140625 107.046875 223.835938 107.625 223.996094 108.230469 " fill-opacity="1" fill-rule="evenodd"/><path fill="#ffffff" d="M 223.171875 112.773438 C 222.554688 109.972656 221.644531 105.667969 220.953125 104.574219 C 218.949219 101.414062 215.636719 101.597656 213.136719 103.976562 C 210.566406 106.421875 209.761719 107.800781 210.742188 112.496094 C 211.605469 116.609375 209.355469 117.757812 208.742188 120.917969 C 208.648438 121.398438 209.007812 122.027344 209.5 121.949219 C 217.265625 120.734375 215.253906 117.171875 216.050781 113.40625 C 216.640625 110.609375 218.554688 110.210938 220.648438 111.953125 C 221.292969 112.496094 221.90625 113.140625 222.558594 113.710938 C 223.625 114.640625 223.277344 113.25 223.171875 112.773438 " fill-opacity="1" fill-rule="evenodd"/><path fill="#ffffff" d="M 194.949219 95.632812 C 199.417969 99.820312 216.597656 98.894531 220.4375 95.292969 C 214.148438 88.738281 200.203125 92.03125 194.949219 95.632812 " fill-opacity="1" fill-rule="evenodd"/><path fill="#ffffff" d="M 221.257812 93.183594 C 223.210938 94.292969 224.71875 95.132812 226.179688 96.175781 C 227.578125 97.175781 228.28125 96.875 228.292969 95.203125 C 228.316406 92.128906 228.449219 89.660156 229.273438 86.046875 C 229.617188 84.535156 228.207031 84.539062 227.164062 84.976562 C 224.679688 86.011719 222.125 87.875 220.339844 89.523438 C 218.90625 90.847656 219.824219 92.371094 221.257812 93.183594 " fill-opacity="1" fill-rule="evenodd"/><g clip-path="url(#id3)"><path fill="#ffffff" d="M 201.980469 87.277344 C 204.59375 87.566406 211.421875 84.503906 213.171875 83.28125 C 215.464844 81.6875 220.023438 78.128906 220.945312 75.402344 C 217.078125 75.585938 214.804688 76.53125 211.621094 78.484375 C 208.9375 80.128906 202.757812 84.871094 201.980469 87.277344 " fill-opacity="1" fill-rule="evenodd"/></g><path fill="#ffffff" d="M 231.722656 116.046875 C 231.433594 114.253906 229.136719 113.824219 228.679688 115.792969 C 228.238281 117.710938 229.167969 120.582031 229.742188 122.707031 C 229.824219 123.015625 230.070312 123.171875 230.238281 122.859375 C 231.164062 121.113281 232.082031 118.222656 231.722656 116.046875 " fill-opacity="1" fill-rule="evenodd"/><g clip-path="url(#id4)"><path fill="#ffffff" d="M 218.785156 134.289062 C 215.304688 132.960938 211.527344 133.867188 209.410156 134.636719 C 208.722656 134.886719 207.757812 134.503906 208.394531 133.683594 C 210.03125 131.578125 215.972656 131.707031 218.679688 132.636719 C 223.839844 134.410156 226.835938 138.378906 228.757812 135.277344 C 229.816406 133.5625 229.203125 130.519531 228.890625 128.488281 C 228.132812 123.53125 218.25 120.9375 213.492188 122.695312 C 212.582031 123.03125 211.367188 123.164062 210.273438 123.378906 C 208.683594 123.691406 207.570312 124.679688 206.8125 126.082031 C 206.34375 126.953125 205.988281 127.6875 204.75 128.84375 C 202.03125 131.390625 198.363281 131.324219 197.933594 137.046875 C 197.167969 147.28125 201.386719 150.8125 204.609375 153.234375 C 205.394531 153.824219 207.835938 155.5 208.066406 156.195312 C 208.363281 157.074219 207.609375 157.902344 206.179688 157.152344 C 205.820312 156.960938 205.445312 156.703125 205.058594 156.417969 C 204.40625 155.933594 203.855469 156.132812 203.566406 156.867188 C 201.613281 161.847656 207.453125 165.722656 201.667969 171.589844 C 200.308594 172.96875 197.679688 175.015625 196.820312 177.25 C 195.746094 180.066406 195.820312 183.332031 197.375 185.652344 C 200.636719 179.691406 201.957031 180.757812 203.980469 178.675781 C 205.519531 177.089844 206.585938 171.886719 208.429688 169.21875 C 210.480469 166.25 209.59375 165.417969 210.199219 162.28125 C 210.640625 159.992188 211.519531 157.632812 212.917969 155.941406 C 214.101562 154.503906 215.742188 153.605469 217.5 153.03125 C 219.320312 152.4375 219.203125 151.382812 219.511719 149.863281 C 219.863281 148.132812 220.519531 146.757812 221.355469 145.96875 C 223.386719 144.046875 225.933594 146.429688 224.058594 148.1875 C 222.164062 149.960938 220.492188 152.769531 223.792969 154.109375 C 226.355469 155.152344 230.109375 155.34375 232.082031 154.210938 C 233.574219 153.347656 233.195312 151.414062 232.730469 150.113281 C 232.21875 148.695312 231.546875 146.914062 231.160156 145.277344 C 230.519531 142.566406 230.070312 141.601562 229.292969 140.09375 C 228.570312 138.691406 227.484375 138.484375 226.109375 138.144531 C 223.847656 137.589844 222.355469 135.648438 218.785156 134.289062 Z M 224.082031 138.96875 C 222.359375 140.265625 220.699219 137.960938 218.308594 136.976562 C 216.125 136.078125 212.65625 136.398438 210.859375 137.949219 C 214.183594 144.183594 218.207031 141.222656 220.910156 140.472656 C 221.511719 140.308594 222.105469 140.601562 221.613281 141.316406 C 219.824219 143.90625 211.859375 144.855469 209.542969 138.496094 C 208.796875 138.773438 208.320312 138.941406 207.808594 138.789062 C 207.199219 138.609375 207.03125 138.042969 207.46875 137.679688 C 209.355469 136.101562 216.023438 133.476562 220.570312 136.277344 C 221.542969 136.878906 223.699219 138.1875 224.082031 138.96875 " fill-opacity="1" fill-rule="evenodd"/></g><g fill="#ffffff" fill-opacity="1"><g transform="translate(103.702856, 266.795208)"><g><path d="M 26.917969 0.804688 C 30 0.804688 32.285156 0.167969 33.71875 -0.125 L 34.144531 -7.269531 C 32.242188 -6.296875 28.015625 -5.492188 24.886719 -5.492188 L 9.886719 -5.492188 L 9.804688 -5.875 L 32.917969 -24.464844 L 32.917969 -29.578125 L 3.550781 -29.578125 L 2.28125 -22.859375 C 3.589844 -23.578125 5.324219 -23.832031 8.367188 -23.832031 L 24.804688 -23.832031 L 24.847656 -23.535156 L 1.648438 -5.027344 L 1.648438 0.550781 C 3.761719 0.0429688 7.097656 -0.421875 11.238281 -0.421875 C 17.410156 -0.421875 21.253906 0.804688 26.917969 0.804688 Z M 26.917969 0.804688 "/></g></g></g><g fill="#ffffff" fill-opacity="1"><g transform="translate(146.198471, 266.795208)"><g><path d="M 3.421875 0 L 33.214844 0 L 34.4375 -6.71875 C 33.214844 -6.042969 31.3125 -5.621094 27.972656 -5.621094 L 10.773438 -5.621094 L 10.773438 -12.085938 L 24.382812 -12.085938 C 26.410156 -12.085938 27.804688 -12 28.820312 -11.832031 L 28.820312 -17.832031 C 27.804688 -17.664062 26.410156 -17.578125 24.382812 -17.578125 L 10.773438 -17.578125 L 10.773438 -23.957031 L 27.675781 -23.957031 C 30.59375 -23.957031 32.453125 -23.664062 33.425781 -23.199219 L 32.367188 -29.578125 L 3.421875 -29.578125 C 3.886719 -27.929688 4.226562 -25.351562 4.226562 -22.480469 L 4.226562 -7.097656 C 4.226562 -4.226562 3.929688 -1.648438 3.421875 0 Z M 3.421875 0 "/></g></g></g><g fill="#ffffff" fill-opacity="1"><g transform="translate(189.158693, 266.795208)"><g><path d="M 19.816406 0.589844 C 30 0.589844 35.75 -4.519531 35.75 -12.929688 L 35.75 -22.480469 C 35.75 -25.351562 36.042969 -27.929688 36.507812 -29.578125 L 28.394531 -29.578125 C 28.859375 -27.929688 29.15625 -25.226562 29.15625 -22.394531 L 29.15625 -13.902344 C 29.15625 -8.535156 25.351562 -5.15625 19.816406 -5.15625 C 14.28125 -5.15625 10.523438 -8.535156 10.523438 -13.902344 L 10.523438 -22.394531 C 10.523438 -25.226562 10.816406 -27.929688 11.238281 -29.578125 L 3.167969 -29.578125 C 3.632812 -27.929688 3.929688 -25.351562 3.929688 -22.480469 L 3.929688 -12.929688 C 3.929688 -4.308594 9.929688 0.589844 19.816406 0.589844 Z M 19.816406 0.589844 "/></g></g></g><g fill="#ffffff" fill-opacity="1"><g transform="translate(235.54024, 266.795208)"><g><path d="M 18.339844 0.589844 C 27.972656 0.589844 34.101562 -2.832031 34.101562 -8.492188 C 34.101562 -20.578125 8.957031 -14.957031 8.957031 -21.382812 C 8.957031 -23.917969 13.183594 -24.59375 17.957031 -24.59375 C 22.945312 -24.59375 28.015625 -23.367188 31.140625 -21.550781 L 31.140625 -27.804688 C 27.804688 -29.199219 22.523438 -30.171875 17.707031 -30.171875 C 9.128906 -30.171875 2.15625 -27.171875 2.15625 -21.464844 C 2.15625 -9.253906 27.253906 -14.621094 27.253906 -8.449219 C 27.253906 -5.832031 23.578125 -4.945312 18.210938 -4.945312 C 12.128906 -4.945312 6.296875 -6.296875 1.859375 -9.128906 L 1.5625 -2.410156 C 6.167969 -0.589844 13.226562 0.589844 18.339844 0.589844 Z M 18.339844 0.589844 "/></g></g></g></svg>